<svg width="28" height="28" viewBox="0 0 28 28" fill="none" xmlns="http://www.w3.org/2000/svg">
<g filter="url(#filter0_d_1797_21578)">
<path d="M14.35 7.35C14.25 7.25 14.1333 7.2 14 7.2C13.8667 7.2 13.75 7.25 13.65 7.35L10.85 10.15C10.6833 10.3167 10.6417 10.5 10.725 10.7C10.8083 10.9 10.9667 11 11.2 11L16.8 11C17.0333 11 17.1917 10.9 17.275 10.7C17.3583 10.5 17.3167 10.3167 17.15 10.15L14.35 7.35ZM14 -8.74228e-07C15.3833 -7.53293e-07 16.6833 0.262666 17.9 0.788C19.1167 1.31333 20.175 2.02566 21.075 2.925C21.975 3.825 22.6873 4.88333 23.212 6.1C23.7367 7.31667 23.9993 8.61667 24 10C24 11.3833 23.7373 12.6833 23.212 13.9C22.6867 15.1167 21.9743 16.175 21.075 17.075C20.175 17.975 19.1167 18.6873 17.9 19.212C16.6833 19.7367 15.3833 19.9993 14 20C12.6167 20 11.3167 19.7373 10.1 19.212C8.88333 18.6867 7.825 17.9743 6.925 17.075C6.025 16.175 5.31233 15.1167 4.787 13.9C4.26167 12.6833 3.99933 11.3833 4 10C4 8.61667 4.26267 7.31667 4.788 6.1C5.31333 4.88333 6.02567 3.825 6.925 2.925C7.825 2.025 8.88333 1.31233 10.1 0.786999C11.3167 0.261666 12.6167 -0.000668567 14 -8.74228e-07ZM14 2C11.7833 2 9.89567 2.779 8.337 4.337C6.77833 5.895 5.99933 7.78267 6 10C6 12.2167 6.779 14.1043 8.337 15.663C9.895 17.2217 11.7827 18.0007 14 18C16.2167 18 18.1043 17.221 19.663 15.663C21.2217 14.105 22.0007 12.2173 22 10C22 7.78333 21.221 5.89567 19.663 4.337C18.105 2.77833 16.2173 1.99933 14 2Z" fill="#594B70"/>
</g>
<defs>
<filter id="filter0_d_1797_21578" x="0" y="0" width="28" height="28" filterUnits="userSpaceOnUse" color-interpolation-filters="sRGB">
<feFlood flood-opacity="0" result="BackgroundImageFix"/>
<feColorMatrix in="SourceAlpha" type="matrix" values="0 0 0 0 0 0 0 0 0 0 0 0 0 0 0 0 0 0 127 0" result="hardAlpha"/>
<feOffset dy="4"/>
<feGaussianBlur stdDeviation="2"/>
<feComposite in2="hardAlpha" operator="out"/>
<feColorMatrix type="matrix" values="0 0 0 0 0 0 0 0 0 0 0 0 0 0 0 0 0 0 0.25 0"/>
<feBlend mode="normal" in2="BackgroundImageFix" result="effect1_dropShadow_1797_21578"/>
<feBlend mode="normal" in="SourceGraphic" in2="effect1_dropShadow_1797_21578" result="shape"/>
</filter>
</defs>
</svg>
