<svg width="46" height="45" viewBox="0 0 46 45" fill="none" xmlns="http://www.w3.org/2000/svg">
<g filter="url(#filter0_d_1795_21276)">
<path fill-rule="evenodd" clip-rule="evenodd" d="M15.3902 9.82812C15.3902 9.85072 15.3896 9.87316 15.3883 9.89543C15.3889 9.90847 15.3894 9.92155 15.3898 9.93466L15.39 9.95186L15.3902 9.97266C15.3252 10.7312 14.7858 11.3994 13.9884 11.5378C13.9124 11.554 13.8336 11.5625 13.7528 11.5625H4V35.2656C4 36.2268 4.76171 37 5.70853 37H29.6279C30.3987 37 31.0469 36.4875 31.2612 35.7783C31.6043 35.8828 31.9545 35.9653 32.31 36.0249C33.5355 36.2304 34.7924 36.1593 35.9907 35.8166C37.4407 35.4006 38.7611 34.6112 39.8226 33.5257C40.6145 32.6031 41.2125 31.5273 41.5797 30.3646C41.9468 29.202 42.0755 27.9769 41.9576 26.7648C41.8399 25.5527 41.4781 24.3791 40.8946 23.3164C40.3111 22.2536 39.5182 21.3241 38.5647 20.585C38.0676 20.1693 37.6639 19.6512 37.3802 19.0648C37.0965 18.4784 36.9393 17.8371 36.919 17.1832C36.8987 16.5293 37.0157 15.8777 37.2623 15.2715C37.509 14.6652 37.8796 14.1181 38.3498 13.6662C38.7891 13.1904 39.0245 12.5587 39.0044 11.9099C38.9842 11.2612 38.7101 10.6485 38.2424 10.2068C37.7747 9.76502 37.1516 9.53034 36.5103 9.55436C35.869 9.57838 35.2619 9.85915 34.8227 10.3349C33.9191 11.2592 33.2106 12.3594 32.7405 13.5681C32.2704 14.7768 32.0487 16.0686 32.0889 17.3641C32.1292 18.6597 32.4305 19.9318 32.9745 21.1025C33.5185 22.2733 34.2936 23.3179 35.2525 24.1725C38.4445 27.1873 36.8585 29.5845 36.2788 30.2123C35.7649 30.7689 33.9731 32.2038 31.3364 30.4094V11.5625H21.6548C20.7151 11.5625 19.9462 10.782 19.9462 9.82812V0H15.3902V9.82812ZM16.2088 21.9688C15.7567 21.9688 15.3902 22.3408 15.3902 22.7998C15.3902 23.2588 15.7567 23.6309 16.2088 23.6309H27.3143C27.7664 23.6309 28.1329 23.2588 28.1329 22.7998C28.1329 22.3408 27.7664 21.9688 27.3143 21.9688H16.2088ZM20.7649 24.9316C20.3128 24.9316 19.9462 25.3037 19.9462 25.7627C19.9462 26.2217 20.3128 26.5938 20.7649 26.5938H27.3143C27.7664 26.5938 28.1329 26.2217 28.1329 25.7627C28.1329 25.3037 27.7664 24.9316 27.3143 24.9316H20.7649Z" fill="url(#paint0_linear_1795_21276)" shape-rendering="crispEdges"/>
<path d="M13.1121 0H5.70853C4.76171 0 4 0.773245 4 1.73438V9.25H13.1121V0Z" fill="url(#paint1_linear_1795_21276)" shape-rendering="crispEdges"/>
<path d="M23.8687 0.505859L30.8381 7.58789C31.1584 7.91309 31.3364 8.35391 31.3364 8.80918V9.25H22.2243V0H22.6585C23.1141 0 23.5484 0.180664 23.8687 0.505859Z" fill="url(#paint2_linear_1795_21276)" shape-rendering="crispEdges"/>
</g>
<defs>
<filter id="filter0_d_1795_21276" x="0" y="0" width="46" height="45" filterUnits="userSpaceOnUse" color-interpolation-filters="sRGB">
<feFlood flood-opacity="0" result="BackgroundImageFix"/>
<feColorMatrix in="SourceAlpha" type="matrix" values="0 0 0 0 0 0 0 0 0 0 0 0 0 0 0 0 0 0 127 0" result="hardAlpha"/>
<feOffset dy="4"/>
<feGaussianBlur stdDeviation="2"/>
<feComposite in2="hardAlpha" operator="out"/>
<feColorMatrix type="matrix" values="0 0 0 0 0 0 0 0 0 0 0 0 0 0 0 0 0 0 0.25 0"/>
<feBlend mode="normal" in2="BackgroundImageFix" result="effect1_dropShadow_1795_21276"/>
<feBlend mode="normal" in="SourceGraphic" in2="effect1_dropShadow_1795_21276" result="shape"/>
</filter>
<linearGradient id="paint0_linear_1795_21276" x1="23" y1="0" x2="23" y2="53.5" gradientUnits="userSpaceOnUse">
<stop stop-color="#F0F0F2"/>
<stop offset="1" stop-color="#F0F0F2" stop-opacity="0"/>
</linearGradient>
<linearGradient id="paint1_linear_1795_21276" x1="23" y1="0" x2="23" y2="53.5" gradientUnits="userSpaceOnUse">
<stop stop-color="#F0F0F2"/>
<stop offset="1" stop-color="#F0F0F2" stop-opacity="0"/>
</linearGradient>
<linearGradient id="paint2_linear_1795_21276" x1="23" y1="0" x2="23" y2="53.5" gradientUnits="userSpaceOnUse">
<stop stop-color="#F0F0F2"/>
<stop offset="1" stop-color="#F0F0F2" stop-opacity="0"/>
</linearGradient>
</defs>
</svg>
