<svg width="287" height="96" viewBox="0 0 287 96" fill="none" xmlns="http://www.w3.org/2000/svg">
<path d="M35.0043 22V11.8182H38.902C39.6378 11.8182 40.2493 11.9342 40.7365 12.1662C41.227 12.3949 41.5933 12.7081 41.8352 13.1058C42.0805 13.5036 42.2031 13.9543 42.2031 14.4581C42.2031 14.8724 42.1236 15.227 41.9645 15.522C41.8054 15.8137 41.5916 16.0507 41.3232 16.233C41.0547 16.4152 40.7547 16.5462 40.4233 16.6257V16.7251C40.7846 16.745 41.1309 16.8561 41.4624 17.0582C41.7971 17.2571 42.0705 17.5388 42.2827 17.9034C42.4948 18.268 42.6009 18.7088 42.6009 19.2259C42.6009 19.7528 42.4732 20.2268 42.218 20.6477C41.9628 21.0653 41.5784 21.3951 41.0646 21.6371C40.5509 21.879 39.9046 22 39.1257 22H35.0043ZM36.8487 20.4588H38.8324C39.5019 20.4588 39.9841 20.3312 40.2791 20.076C40.5774 19.8175 40.7266 19.486 40.7266 19.0817C40.7266 18.7801 40.652 18.5083 40.5028 18.2663C40.3537 18.0211 40.1416 17.8288 39.8665 17.6896C39.5914 17.5471 39.2633 17.4759 38.8821 17.4759H36.8487V20.4588ZM36.8487 16.1484H38.6733C38.9915 16.1484 39.2782 16.0904 39.5334 15.9744C39.7886 15.8551 39.9891 15.6877 40.1349 15.4723C40.2841 15.2536 40.3587 14.995 40.3587 14.6967C40.3587 14.3023 40.2195 13.9775 39.9411 13.7223C39.666 13.4671 39.2566 13.3395 38.7131 13.3395H36.8487V16.1484ZM57.9738 11.8182H59.8182V18.4702C59.8182 19.1993 59.6459 19.8407 59.3012 20.3942C58.9598 20.9477 58.4792 21.3802 57.8594 21.6918C57.2396 22 56.5154 22.1541 55.6868 22.1541C54.8549 22.1541 54.1291 22 53.5093 21.6918C52.8895 21.3802 52.4089 20.9477 52.0675 20.3942C51.7261 19.8407 51.5554 19.1993 51.5554 18.4702V11.8182H53.3999V18.3161C53.3999 18.7403 53.4927 19.1181 53.6783 19.4496C53.8672 19.781 54.1324 20.0412 54.4738 20.2301C54.8151 20.4157 55.2195 20.5085 55.6868 20.5085C56.1542 20.5085 56.5585 20.4157 56.8999 20.2301C57.2446 20.0412 57.5097 19.781 57.6953 19.4496C57.881 19.1181 57.9738 18.7403 57.9738 18.3161V11.8182ZM71.0175 11.8182V22H69.173V11.8182H71.0175ZM80.3648 22V11.8182H82.2093V20.4538H86.6936V22H80.3648ZM93.8982 13.3643V11.8182H102.022V13.3643H98.8748V22H97.0452V13.3643H93.8982ZM121.761 22V11.8182H125.658C126.394 11.8182 127.006 11.9342 127.493 12.1662C127.983 12.3949 128.35 12.7081 128.591 13.1058C128.837 13.5036 128.959 13.9543 128.959 14.4581C128.959 14.8724 128.88 15.227 128.721 15.522C128.562 15.8137 128.348 16.0507 128.079 16.233C127.811 16.4152 127.511 16.5462 127.18 16.6257V16.7251C127.541 16.745 127.887 16.8561 128.219 17.0582C128.553 17.2571 128.827 17.5388 129.039 17.9034C129.251 18.268 129.357 18.7088 129.357 19.2259C129.357 19.7528 129.229 20.2268 128.974 20.6477C128.719 21.0653 128.335 21.3951 127.821 21.6371C127.307 21.879 126.661 22 125.882 22H121.761ZM123.605 20.4588H125.589C126.258 20.4588 126.74 20.3312 127.035 20.076C127.334 19.8175 127.483 19.486 127.483 19.0817C127.483 18.7801 127.408 18.5083 127.259 18.2663C127.11 18.0211 126.898 17.8288 126.623 17.6896C126.348 17.5471 126.02 17.4759 125.638 17.4759H123.605V20.4588ZM123.605 16.1484H125.43C125.748 16.1484 126.034 16.0904 126.29 15.9744C126.545 15.8551 126.745 15.6877 126.891 15.4723C127.04 15.2536 127.115 14.995 127.115 14.6967C127.115 14.3023 126.976 13.9775 126.697 13.7223C126.422 13.4671 126.013 13.3395 125.469 13.3395H123.605V16.1484ZM137.616 11.8182H139.699L142.19 16.3224H142.289L144.78 11.8182H146.863L143.159 18.2017V22H141.319V18.2017L137.616 11.8182Z" fill="#F4F4F4"/>
<path d="M151.516 15.2002H152.406H274C280.627 15.2002 286 20.5728 286 27.2002V83.0002C286 89.6276 280.627 95.0002 274 95.0002H13C6.37258 95.0002 1 89.6276 1 83.0002V27.2002C1 20.5728 6.37258 15.2002 13 15.2002H28.6094" stroke="#F4F4F4" stroke-width="2"/>
<path fill-rule="evenodd" clip-rule="evenodd" d="M49.6864 76.9874V58.352H44.8743V81.646H68.9359V76.9874H49.6864ZM20.8126 72.3288H16V81.646H20.8126V72.3288ZM35.2495 67.6697H20.8126V72.3288H35.2495V81.646H40.0622V72.3288H35.2495V67.6697H40.0622V58.352H35.2495V67.6697ZM20.8126 58.352H16V67.6697H20.8126V58.352ZM64.1238 39.7171H49.6864V30.3994H44.8743V44.3757H64.1238V49.0343H44.8743V53.6934H68.9359V30.3994H64.1238V39.7171ZM40.0622 30.3994H16V53.6934H20.8126V44.3757H40.0622V30.3994ZM20.8126 35.058V39.7171H35.2495V35.058H20.8126Z" fill="url(#paint0_linear_1757_21368)"/>
<g opacity="0.6">
<path d="M25.6272 81.646V76.9874H30.4398V81.646H25.6272Z" fill="url(#paint1_linear_1757_21368)"/>
<path d="M54.5014 72.3288V67.6697H59.3135V72.3288H54.5014Z" fill="url(#paint2_linear_1757_21368)"/>
<path d="M64.1262 72.3288V63.0111H54.5014V58.352H68.9383V72.3288H64.1262Z" fill="url(#paint3_linear_1757_21368)"/>
<path d="M25.6272 63.0111V58.352H30.4398V63.0111H25.6272Z" fill="url(#paint4_linear_1757_21368)"/>
<path d="M40.0646 49.0343V53.6934H25.6272V49.0343H40.0646Z" fill="url(#paint5_linear_1757_21368)"/>
<path d="M54.5014 35.058V30.3994H59.3135V35.058H54.5014Z" fill="url(#paint6_linear_1757_21368)"/>
</g>
<path d="M80.3281 55.6931V30.6718H87.1306C88.2047 30.6718 89.2549 30.8533 90.2812 31.2164C91.3076 31.5796 92.1788 32.1469 92.8948 32.9186C93.6347 33.6902 94.1479 34.5753 94.4343 35.5739C94.7446 36.5725 94.8998 37.5824 94.8998 38.6037C94.8998 39.6023 94.7446 40.6009 94.4343 41.5995C94.1479 42.598 93.6347 43.4832 92.8948 44.2548C92.1788 45.0264 91.3076 45.5938 90.2812 45.9569C89.2549 46.32 88.2047 46.5016 87.1306 46.5016H84.9467V55.6931H80.3281ZM84.9467 42.5527H87.1306C87.7751 42.5527 88.3598 42.3484 88.8849 41.9399C89.4339 41.5314 89.8039 41.0321 89.9948 40.442C90.1858 39.8292 90.2812 39.2165 90.2812 38.6037C90.2812 37.9682 90.1858 37.3555 89.9948 36.7654C89.8039 36.1526 89.4339 35.642 88.8849 35.2335C88.3598 34.825 87.7751 34.6207 87.1306 34.6207H84.9467V42.5527Z" fill="#2FD8A1"/>
<path d="M104.674 55.6931V46.1271L101.881 40.7143C100.378 37.8094 99.6257 34.9611 99.6257 32.1696V30.6718H104.244V32.1696C104.244 34.4165 104.829 36.686 105.999 38.9782L106.965 40.8165L107.932 38.9782C109.101 36.686 109.686 34.4165 109.686 32.1696V30.6718H114.305V32.1696C114.305 34.9611 113.553 37.8094 112.049 40.7143L109.257 46.1271V55.6931H104.674Z" fill="#2FD8A1"/>
<path d="M119.317 55.6931V54.4336C119.317 52.0052 120.093 49.5427 121.644 47.0463L124.043 43.1654L121.644 39.3186C120.093 36.8221 119.317 34.3597 119.317 31.9313V30.6718H123.936V31.9313C123.936 33.7016 124.497 35.4945 125.618 37.3101L126.657 38.9782L127.695 37.3101C128.817 35.4945 129.378 33.7016 129.378 31.9313V30.6718H133.996V31.9313C133.996 34.3597 133.22 36.8221 131.669 39.3186L129.27 43.1654L131.669 47.0463C133.22 49.5427 133.996 52.0052 133.996 54.4336V55.6931H129.378V54.4336C129.378 52.6633 128.817 50.8704 127.695 49.0548L126.657 47.3867L125.618 49.0548C124.497 50.8704 123.936 52.6633 123.936 54.4336V55.6931H119.317Z" fill="#2FD8A1"/>
<path d="M139.832 55.6931V30.6718H153.688V34.6207H144.415V40.2037H151.504V44.1527H144.415V51.7442H153.688V55.6931H139.832Z" fill="#2FD8A1"/>
<path d="M159.523 55.6931V30.6718H164.106V51.7442H173.665V55.6931H159.523Z" fill="#2FD8A1"/>
<path d="M185.767 55.9655C184.74 55.9655 183.726 55.8066 182.723 55.4889C181.745 55.1711 180.886 54.6605 180.146 53.957C179.43 53.2307 178.905 52.391 178.57 51.4378C178.26 50.4846 178.105 49.5201 178.105 48.5442V37.8207C178.105 36.8448 178.26 35.8803 178.57 34.9271C178.905 33.9739 179.43 33.1455 180.146 32.442C180.886 31.7157 181.745 31.1937 182.723 30.876C183.726 30.5583 184.74 30.3994 185.767 30.3994C186.912 30.3994 188.034 30.6037 189.132 31.0122C190.23 31.4207 191.137 32.0789 191.853 32.9867C192.569 33.8718 193.035 34.859 193.249 35.9484L188.774 36.9356C188.703 36.459 188.535 36.0165 188.273 35.6079C188.01 35.1994 187.652 34.893 187.199 34.6888C186.745 34.4618 186.268 34.3484 185.767 34.3484C185.17 34.3484 184.609 34.5186 184.084 34.859C183.583 35.1767 183.225 35.6079 183.01 36.1526C182.819 36.6973 182.723 37.2533 182.723 37.8207V48.5442C182.723 49.1115 182.819 49.6676 183.01 50.2123C183.225 50.7569 183.583 51.1995 184.084 51.5399C184.609 51.8577 185.17 52.0165 185.767 52.0165C186.268 52.0165 186.745 51.9144 187.199 51.7101C187.652 51.4832 188.01 51.1655 188.273 50.7569C188.535 50.3484 188.703 49.9059 188.774 49.4293L193.249 50.4165C193.035 51.5059 192.569 52.5045 191.853 53.4123C191.137 54.2974 190.23 54.9442 189.132 55.3527C188.034 55.7612 186.912 55.9655 185.767 55.9655Z" fill="#2FD8A1"/>
<path d="M198.083 55.6931V30.6718H202.701V40.9526H208.143V30.6718H212.762V55.6931H208.143V44.9016H202.701V55.6931H198.083Z" fill="#2FD8A1"/>
<path d="M217.774 55.6931V53.174C217.774 48.6576 219.338 41.1569 222.464 30.6718H227.763C230.89 41.1569 232.453 48.6576 232.453 53.174V55.6931H227.835V53.174C227.835 52.425 227.799 51.574 227.727 50.6208H222.5C222.429 51.574 222.393 52.425 222.393 53.174V55.6931H217.774ZM222.966 46.6718H227.262C226.808 43.5399 226.092 39.7838 225.114 35.4037C224.135 39.7838 223.419 43.5399 222.966 46.6718Z" fill="#2FD8A1"/>
<path d="M239.793 55.6931V51.7442H242.514V34.6207H239.793V30.6718H249.818V34.6207H247.097V51.7442H249.818V55.6931H239.793Z" fill="#2FD8A1"/>
<path d="M257.157 55.6931V30.6718H258.625H261.883L267.969 48.6463L267.898 48.1697C267.444 45.6959 267.218 43.1995 267.218 40.6803V30.6718H271.836V55.6931H270.368H267.11L261.024 37.7186L261.095 38.1952C261.549 40.669 261.776 43.1654 261.776 45.6846V55.6931H257.157Z" fill="#2FD8A1"/>
<path d="M84.0619 80.6116V63.6924H80V62.297H89.7486V63.6924H85.6867V80.6116H84.0619Z" fill="#F4F4F4"/>
<path d="M101.017 80.6116V62.297H109.927V63.6924H102.642V70.0215H108.46V71.4169H102.642V79.2162H109.927V80.6116H101.017Z" fill="#F4F4F4"/>
<path d="M125.232 80.811C124.533 80.811 123.851 80.703 123.188 80.487C122.524 80.2545 121.947 79.8973 121.458 79.4156C120.986 78.9172 120.646 78.3524 120.436 77.7211C120.244 77.0733 120.148 76.4171 120.148 75.7526V67.156C120.148 66.4915 120.244 65.8436 120.436 65.2124C120.646 64.5645 120.986 63.9997 121.458 63.518C121.947 63.0196 122.524 62.6625 123.188 62.4465C123.851 62.2139 124.533 62.0977 125.232 62.0977C125.826 62.0977 126.42 62.1807 127.014 62.3468C127.608 62.513 128.132 62.787 128.586 63.1691C129.058 63.5512 129.433 64.008 129.713 64.5396C129.992 65.0546 130.167 65.5945 130.237 66.1593L128.638 66.4334C128.568 65.9018 128.385 65.4034 128.088 64.9383C127.791 64.4565 127.38 64.0994 126.856 63.8668C126.332 63.6176 125.791 63.4931 125.232 63.4931C124.742 63.4931 124.262 63.5844 123.79 63.7672C123.336 63.9333 122.952 64.1991 122.637 64.5645C122.323 64.93 122.096 65.337 121.956 65.7855C121.834 66.234 121.772 66.6908 121.772 67.156V75.7526C121.772 76.2178 121.834 76.6746 121.956 77.1231C122.096 77.5716 122.323 77.9786 122.637 78.3441C122.952 78.7095 123.336 78.9836 123.79 79.1664C124.262 79.3325 124.742 79.4156 125.232 79.4156C125.791 79.4156 126.332 79.2993 126.856 79.0667C127.38 78.8175 127.791 78.4604 128.088 77.9952C128.385 77.5135 128.568 77.0068 128.638 76.4752L130.237 76.7493C130.167 77.3141 129.992 77.8623 129.713 78.3939C129.433 78.9089 129.058 79.3574 128.586 79.7395C128.132 80.1216 127.608 80.3957 127.014 80.5618C126.42 80.7279 125.826 80.811 125.232 80.811Z" fill="#F4F4F4"/>
<path d="M140.536 80.6116V62.297H142.161V70.2956H148.66V62.297H150.285V80.6116H148.66V71.691H142.161V80.6116H140.536Z" fill="#F4F4F4"/>
<path d="M160.715 80.6116V62.297H161.448H163.073L168.838 78.1697V62.297H170.463V80.6116H169.729H168.105L162.339 64.7389V80.6116H160.715Z" fill="#F4F4F4"/>
<path d="M185.767 80.811C185.069 80.811 184.387 80.703 183.723 80.487C183.059 80.2545 182.483 79.8973 181.994 79.4156C181.522 78.9172 181.181 78.3524 180.972 77.7211C180.78 77.0733 180.683 76.4171 180.683 75.7526V67.156C180.683 66.4915 180.78 65.8436 180.972 65.2124C181.181 64.5645 181.522 63.9997 181.994 63.518C182.483 63.0196 183.059 62.6625 183.723 62.4465C184.387 62.2139 185.069 62.0977 185.767 62.0977C186.466 62.0977 187.148 62.2139 187.812 62.4465C188.475 62.6625 189.043 63.0196 189.515 63.518C190.004 63.9997 190.345 64.5645 190.537 65.2124C190.747 65.8436 190.851 66.4915 190.851 67.156V75.7526C190.851 76.4171 190.747 77.0733 190.537 77.7211C190.345 78.3524 190.004 78.9172 189.515 79.4156C189.043 79.8973 188.475 80.2545 187.812 80.487C187.148 80.703 186.466 80.811 185.767 80.811ZM185.767 79.4156C186.257 79.4156 186.728 79.3325 187.183 79.1664C187.654 78.9836 188.047 78.7095 188.362 78.3441C188.676 77.9786 188.895 77.5716 189.017 77.1231C189.157 76.6746 189.227 76.2178 189.227 75.7526V67.156C189.227 66.6908 189.157 66.234 189.017 65.7855C188.895 65.337 188.676 64.93 188.362 64.5645C188.047 64.1991 187.654 63.9333 187.183 63.7672C186.728 63.5844 186.257 63.4931 185.767 63.4931C185.278 63.4931 184.798 63.5844 184.326 63.7672C183.872 63.9333 183.488 64.1991 183.173 64.5645C182.859 64.93 182.631 65.337 182.492 65.7855C182.369 66.234 182.308 66.6908 182.308 67.156V75.7526C182.308 76.2178 182.369 76.6746 182.492 77.1231C182.631 77.5716 182.859 77.9786 183.173 78.3441C183.488 78.7095 183.872 78.9836 184.326 79.1664C184.798 79.3325 185.278 79.4156 185.767 79.4156Z" fill="#F4F4F4"/>
<path d="M201.91 80.6116V62.297H203.535V79.2162H211.03V80.6116H201.91Z" fill="#F4F4F4"/>
<path d="M226.125 80.811C225.426 80.811 224.745 80.703 224.081 80.487C223.417 80.2545 222.84 79.8973 222.351 79.4156C221.879 78.9172 221.539 78.3524 221.329 77.7211C221.137 77.0733 221.041 76.4171 221.041 75.7526V67.156C221.041 66.4915 221.137 65.8436 221.329 65.2124C221.539 64.5645 221.879 63.9997 222.351 63.518C222.84 63.0196 223.417 62.6625 224.081 62.4465C224.745 62.2139 225.426 62.0977 226.125 62.0977C226.824 62.0977 227.505 62.2139 228.169 62.4465C228.833 62.6625 229.4 63.0196 229.872 63.518C230.361 63.9997 230.702 64.5645 230.894 65.2124C231.104 65.8436 231.209 66.4915 231.209 67.156V75.7526C231.209 76.4171 231.104 77.0733 230.894 77.7211C230.702 78.3524 230.361 78.9172 229.872 79.4156C229.4 79.8973 228.833 80.2545 228.169 80.487C227.505 80.703 226.824 80.811 226.125 80.811ZM226.125 79.4156C226.614 79.4156 227.086 79.3325 227.54 79.1664C228.012 78.9836 228.405 78.7095 228.719 78.3441C229.034 77.9786 229.252 77.5716 229.374 77.1231C229.514 76.6746 229.584 76.2178 229.584 75.7526V67.156C229.584 66.6908 229.514 66.234 229.374 65.7855C229.252 65.337 229.034 64.93 228.719 64.5645C228.405 64.1991 228.012 63.9333 227.54 63.7672C227.086 63.5844 226.614 63.4931 226.125 63.4931C225.636 63.4931 225.155 63.5844 224.683 63.7672C224.229 63.9333 223.845 64.1991 223.53 64.5645C223.216 64.93 222.989 65.337 222.849 65.7855C222.727 66.234 222.665 66.6908 222.665 67.156V75.7526C222.665 76.2178 222.727 76.6746 222.849 77.1231C222.989 77.5716 223.216 77.9786 223.53 78.3441C223.845 78.7095 224.229 78.9836 224.683 79.1664C225.155 79.3325 225.636 79.4156 226.125 79.4156Z" fill="#F4F4F4"/>
<path d="M246.277 80.811C245.596 80.811 244.923 80.703 244.259 80.487C243.595 80.2545 243.019 79.889 242.53 79.3906C242.058 78.8923 241.717 78.3275 241.508 77.6962C241.315 77.065 241.219 76.4171 241.219 75.7526V67.156C241.219 66.4915 241.315 65.8436 241.508 65.2124C241.717 64.5645 242.058 63.9997 242.53 63.518C243.019 63.0196 243.595 62.6625 244.259 62.4465C244.923 62.2139 245.604 62.0977 246.303 62.0977C246.897 62.0977 247.491 62.1807 248.085 62.3468C248.679 62.513 249.203 62.787 249.658 63.1691C250.129 63.5512 250.505 64.008 250.785 64.5396C251.064 65.0546 251.239 65.5945 251.309 66.1593L249.71 66.4334C249.64 65.9018 249.457 65.4034 249.16 64.9383C248.863 64.4565 248.452 64.0994 247.928 63.8668C247.404 63.6176 246.862 63.4931 246.303 63.4931C245.814 63.4931 245.334 63.5844 244.862 63.7672C244.408 63.9333 244.023 64.1991 243.709 64.5645C243.394 64.93 243.167 65.337 243.028 65.7855C242.905 66.234 242.844 66.6908 242.844 67.156V75.7526C242.844 76.2178 242.905 76.6746 243.028 77.1231C243.167 77.5716 243.394 77.9786 243.709 78.3441C244.023 78.7095 244.408 78.9836 244.862 79.1664C245.316 79.3325 245.788 79.4156 246.277 79.4156C246.749 79.4156 247.203 79.3242 247.64 79.1415C248.094 78.9587 248.47 78.6846 248.767 78.3192C249.064 77.9371 249.265 77.5301 249.369 77.0982C249.492 76.6497 249.553 76.2012 249.553 75.7526V72.1395H246.303V70.7441H251.178V75.7526C251.178 76.4005 251.082 77.0401 250.889 77.6713C250.715 78.3026 250.4 78.8674 249.946 79.3657C249.492 79.8641 248.933 80.2295 248.269 80.4621C247.622 80.6947 246.958 80.811 246.277 80.811Z" fill="#F4F4F4"/>
<path d="M265.67 80.6116V73.4353L263.337 69.3487C262.184 67.3387 261.608 65.3536 261.608 63.3934V62.297H263.232V63.3934C263.232 65.1376 263.739 66.8985 264.752 68.676L266.482 71.7159L268.212 68.676C269.225 66.8985 269.731 65.1376 269.731 63.3934V62.297H271.356V63.3934C271.356 65.3536 270.78 67.3387 269.627 69.3487L267.294 73.4353V80.6116H265.67Z" fill="#F4F4F4"/>
<defs>
<linearGradient id="paint0_linear_1757_21368" x1="52.6031" y1="30.3994" x2="4.16993" y2="65.1653" gradientUnits="userSpaceOnUse">
<stop stop-color="#5CD1B4"/>
<stop offset="1" stop-color="#225EF1"/>
</linearGradient>
<linearGradient id="paint1_linear_1757_21368" x1="55.5751" y1="30.3994" x2="10.9293" y2="56.6198" gradientUnits="userSpaceOnUse">
<stop stop-color="#5CD1B4"/>
<stop offset="1" stop-color="#225EF1"/>
</linearGradient>
<linearGradient id="paint2_linear_1757_21368" x1="55.5751" y1="30.3994" x2="10.9293" y2="56.6198" gradientUnits="userSpaceOnUse">
<stop stop-color="#5CD1B4"/>
<stop offset="1" stop-color="#225EF1"/>
</linearGradient>
<linearGradient id="paint3_linear_1757_21368" x1="55.5751" y1="30.3994" x2="10.9293" y2="56.6198" gradientUnits="userSpaceOnUse">
<stop stop-color="#5CD1B4"/>
<stop offset="1" stop-color="#225EF1"/>
</linearGradient>
<linearGradient id="paint4_linear_1757_21368" x1="55.5751" y1="30.3994" x2="10.9293" y2="56.6198" gradientUnits="userSpaceOnUse">
<stop stop-color="#5CD1B4"/>
<stop offset="1" stop-color="#225EF1"/>
</linearGradient>
<linearGradient id="paint5_linear_1757_21368" x1="55.5751" y1="30.3994" x2="10.9293" y2="56.6198" gradientUnits="userSpaceOnUse">
<stop stop-color="#5CD1B4"/>
<stop offset="1" stop-color="#225EF1"/>
</linearGradient>
<linearGradient id="paint6_linear_1757_21368" x1="55.5751" y1="30.3994" x2="10.9293" y2="56.6198" gradientUnits="userSpaceOnUse">
<stop stop-color="#5CD1B4"/>
<stop offset="1" stop-color="#225EF1"/>
</linearGradient>
</defs>
</svg>
